<?xml version="1.0" standalone="no"?><!DOCTYPE svg PUBLIC "-//W3C//DTD SVG 1.1//EN" "http://www.w3.org/Graphics/SVG/1.1/DTD/svg11.dtd"><svg t="1778831408224" class="icon" viewBox="0 0 1024 1024" version="1.1" xmlns="http://www.w3.org/2000/svg" p-id="1722" xmlns:xlink="http://www.w3.org/1999/xlink" width="200" height="200"><path d="M672.899545 1023.906195c-150.088113 0-317.98329-72.50019-453.126189-207.961072C3.226735 599.398502-56.554123 297.950343 82.722558 114.791968l50.559343 38.475978C15.3101 308.761775 72.865076 580.001522 264.609 771.109479S723.776871 1017.546529 874.500951 894.169012l39.747911 49.28741a377.128182 377.128182 0 0 1-241.349317 80.449773z" fill="#2A2A3B" p-id="1723"></path><path d="M971.485855 869.048333l-240.395368-241.031335-43.245727 43.245728a240.395368 240.395368 0 0 1-340.878088 0 242.303267 242.303267 0 0 1 0-341.514054L390.530383 286.184961 149.817032 44.835644 194.01671 0l286.184961 286.184961-88.081371 88.399355a178.388626 178.388626 0 0 0 0 251.842766 176.480726 176.480726 0 0 0 250.570832 0l88.399355-88.717338 286.184961 286.184961z" fill="#2A2A3B" p-id="1724"></path></svg>